<?xml version="1.0" encoding="UTF-8" standalone="no"?>
<!DOCTYPE svg PUBLIC "-//W3C//DTD SVG 1.1//EN" "http://www.w3.org/Graphics/SVG/1.1/DTD/svg11.dtd">
<svg width="100%" height="100%" viewBox="0 0 1964 443" version="1.1" xmlns="http://www.w3.org/2000/svg" xmlns:xlink="http://www.w3.org/1999/xlink" xml:space="preserve" xmlns:serif="http://www.serif.com/" style="fill-rule:evenodd;clip-rule:evenodd;stroke-linejoin:round;stroke-miterlimit:2;">
    <g transform="matrix(1.05209,0,0,1.05209,-79.0782,-9.56728)">
        <path d="M830.36,318L779.36,318L779.36,228.92C779.36,214.867 776.527,204.893 770.86,199C765.193,193.107 754.993,190.16 740.26,190.16C724.847,190.16 714.307,193.447 708.64,200.02C703.2,206.593 700.48,217.247 700.48,231.98L694.02,231.98L689.94,200.02L699.8,200.02C701.16,190.273 704.107,181.207 708.64,172.82C713.4,164.433 720.313,157.633 729.38,152.42C738.673,146.98 750.573,144.26 765.08,144.26C779.813,144.26 791.94,147.207 801.46,153.1C811.207,158.993 818.46,167.04 823.22,177.24C827.98,187.44 830.36,199 830.36,211.92L830.36,318ZM570.6,318L519.6,318L519.6,147.66L566.86,147.66L566.86,200.7L570.6,202.4L570.6,318ZM700.48,318L649.48,318L649.48,228.92C649.48,214.867 646.647,204.893 640.98,199C635.313,193.107 625.113,190.16 610.38,190.16C594.74,190.16 584.2,193.447 578.76,200.02C573.32,206.593 570.6,217.247 570.6,231.98L564.14,231.98L560.4,199.34L569.58,199.34C571.167,189.82 574.227,180.98 578.76,172.82C583.293,164.433 589.98,157.633 598.82,152.42C607.66,146.98 619.22,144.26 633.5,144.26C648.233,144.26 660.247,147.32 669.54,153.44C679.06,159.56 686.087,167.72 690.62,177.92C695.153,188.12 697.42,199.453 697.42,211.92L700.48,211.92L700.48,318ZM947.06,321.4C927.793,321.4 910.793,317.773 896.06,310.52C881.553,303.267 870.22,293.067 862.06,279.92C853.9,266.547 849.82,250.907 849.82,233C849.82,214.867 853.9,199.227 862.06,186.08C870.22,172.707 881.553,162.393 896.06,155.14C910.793,147.887 927.793,144.26 947.06,144.26C966.553,144.26 983.553,147.887 998.06,155.14C1012.57,162.393 1023.9,172.707 1032.06,186.08C1040.22,199.227 1044.3,214.867 1044.3,233C1044.3,250.907 1040.22,266.547 1032.06,279.92C1023.9,293.067 1012.57,303.267 998.06,310.52C983.553,317.773 966.553,321.4 947.06,321.4ZM947.06,276.18C964.286,276.18 976.3,272.78 983.1,265.98C990.126,258.953 993.64,247.96 993.64,233C993.64,217.813 990.126,206.707 983.1,199.68C976.3,192.653 964.286,189.14 947.06,189.14C929.833,189.14 917.706,192.653 910.68,199.68C903.88,206.707 900.48,217.813 900.48,233C900.48,247.96 903.88,258.953 910.68,265.98C917.706,272.78 929.833,276.18 947.06,276.18ZM1151.15,321.4C1122.59,321.4 1100.6,316.073 1085.19,305.42C1069.77,294.54 1062.07,279.24 1062.07,259.52L1062.07,258.5L1113.07,258.5L1113.07,261.56C1113.07,269.267 1115.79,274.48 1121.23,277.2C1126.89,279.693 1136.98,280.94 1151.49,280.94C1165.09,280.94 1174.04,279.807 1178.35,277.54C1182.88,275.047 1185.15,271.307 1185.15,266.32C1185.15,261.56 1183.45,258.273 1180.05,256.46C1176.65,254.42 1169.96,252.72 1159.99,251.36L1112.05,245.58C1095.05,243.767 1081.9,239.007 1072.61,231.3C1063.54,223.593 1059.01,212.487 1059.01,197.98C1059.01,188.007 1061.95,179.053 1067.85,171.12C1073.74,162.96 1082.81,156.5 1095.05,151.74C1107.51,146.753 1123.49,144.26 1142.99,144.26C1161.57,144.26 1177.33,146.64 1190.25,151.4C1203.39,155.933 1213.37,162.847 1220.17,172.14C1226.97,181.433 1230.37,192.993 1230.37,206.82L1230.37,207.84L1179.37,207.84L1179.37,205.8C1179.37,201.04 1178.35,197.187 1176.31,194.24C1174.49,191.067 1170.75,188.687 1165.09,187.1C1159.65,185.513 1151.71,184.72 1141.29,184.72C1128.59,184.72 1120.09,185.967 1115.79,188.46C1111.48,190.727 1109.33,194.58 1109.33,200.02C1109.33,204.327 1111.03,207.613 1114.43,209.88C1118.05,211.92 1125.42,213.733 1136.53,215.32L1172.91,219.74C1195.57,222.233 1211.67,227.447 1221.19,235.38C1230.71,243.313 1235.47,254.307 1235.47,268.36C1235.47,279.013 1232.07,288.307 1225.27,296.24C1218.47,304.173 1208.83,310.407 1196.37,314.94C1183.9,319.247 1168.83,321.4 1151.15,321.4ZM1622.41,321.4C1603.14,321.4 1586.26,317.773 1571.75,310.52C1557.24,303.267 1546.02,293.067 1538.09,279.92C1530.38,266.547 1526.53,250.907 1526.53,233C1526.53,214.867 1530.38,199.227 1538.09,186.08C1546.02,172.707 1557.24,162.393 1571.75,155.14C1586.26,147.887 1603.14,144.26 1622.41,144.26C1640.77,144.26 1656.86,147.32 1670.69,153.44C1684.52,159.56 1695.28,168.173 1702.99,179.28C1710.7,190.16 1714.55,202.967 1714.55,217.7L1714.55,222.46L1663.89,222.46L1663.89,219.74C1663.89,208.86 1660.15,201.267 1652.67,196.96C1645.19,192.427 1634.76,190.16 1621.39,190.16C1606.2,190.16 1594.98,193.333 1587.73,199.68C1580.7,206.027 1577.19,217.133 1577.19,233C1577.19,248.413 1580.7,259.407 1587.73,265.98C1594.98,272.327 1606.2,275.5 1621.39,275.5C1634.76,275.5 1645.19,273.347 1652.67,269.04C1660.15,264.507 1663.89,256.8 1663.89,245.92L1663.89,243.2L1714.55,243.2L1714.55,247.96C1714.55,262.693 1710.7,275.613 1702.99,286.72C1695.28,297.6 1684.52,306.1 1670.69,312.22C1656.86,318.34 1640.77,321.4 1622.41,321.4ZM1827.27,321.4C1808.01,321.4 1791.01,317.773 1776.27,310.52C1761.77,303.267 1750.43,293.067 1742.27,279.92C1734.11,266.547 1730.03,250.907 1730.03,233C1730.03,214.867 1734.11,199.227 1742.27,186.08C1750.43,172.707 1761.77,162.393 1776.27,155.14C1791.01,147.887 1808.01,144.26 1827.27,144.26C1846.77,144.26 1863.77,147.887 1878.27,155.14C1892.78,162.393 1904.11,172.707 1912.27,186.08C1920.43,199.227 1924.51,214.867 1924.51,233C1924.51,250.907 1920.43,266.547 1912.27,279.92C1904.11,293.067 1892.78,303.267 1878.27,310.52C1863.77,317.773 1846.77,321.4 1827.27,321.4ZM1827.27,276.18C1844.5,276.18 1856.51,272.78 1863.31,265.98C1870.34,258.953 1873.85,247.96 1873.85,233C1873.85,217.813 1870.34,206.707 1863.31,199.68C1856.51,192.653 1844.5,189.14 1827.27,189.14C1810.05,189.14 1797.92,192.653 1790.89,199.68C1784.09,206.707 1780.69,217.813 1780.69,233C1780.69,247.96 1784.09,258.953 1790.89,265.98C1797.92,272.78 1810.05,276.18 1827.27,276.18Z" style="fill:white;fill-rule:nonzero;"/>
    </g>
    <g transform="matrix(1.05209,0,0,1.05209,-79.0782,-9.56728)">
        <path d="M1428.09,318L1380.49,318L1380.49,277.54L1377.77,276.86L1377.77,217.36C1377.77,206.253 1374.93,198.773 1369.27,194.92C1363.83,191.067 1354.31,189.14 1340.71,189.14C1327.79,189.14 1318.49,191.067 1312.83,194.92C1307.16,198.773 1304.33,205.573 1304.33,215.32L1304.33,216.68L1252.99,216.68L1252.99,215.66C1252.99,201.607 1256.73,189.253 1264.21,178.6C1271.69,167.72 1282.23,159.333 1295.83,153.44C1309.65,147.32 1325.86,144.26 1344.45,144.26C1363.49,144.26 1379.13,147.32 1391.37,153.44C1403.83,159.56 1413.01,168.173 1418.91,179.28C1425.03,190.16 1428.09,203.08 1428.09,218.04L1428.09,318ZM1308.41,321.4C1290.05,321.4 1275.65,317.32 1265.23,309.16C1254.8,301 1249.59,289.893 1249.59,275.84C1249.59,267.227 1251.63,259.86 1255.71,253.74C1259.79,247.62 1265.91,242.747 1274.07,239.12C1282.23,235.267 1292.43,232.66 1304.67,231.3L1381.17,223.48L1381.17,252.72L1318.61,259.86C1312.49,260.313 1307.95,261.56 1305.01,263.6C1302.29,265.413 1300.93,268.36 1300.93,272.44C1300.93,276.973 1302.74,280.26 1306.37,282.3C1309.99,284.34 1315.55,285.36 1323.03,285.36C1335.27,285.36 1345.35,284.227 1353.29,281.96C1361.22,279.693 1367.23,276.067 1371.31,271.08C1375.61,265.867 1377.77,258.953 1377.77,250.34L1382.53,250L1382.53,278.9L1377.77,278.9C1373.91,292.047 1366.09,302.473 1354.31,310.18C1342.75,317.66 1327.45,321.4 1308.41,321.4ZM1504.94,318L1453.94,318L1453.94,147.66L1504.94,147.66L1504.94,318ZM1504.94,130.32L1453.94,130.32L1453.94,90.2L1504.94,90.2L1504.94,130.32Z" style="fill:url(#_Linear1);fill-rule:nonzero;"/>
    </g>
    <g transform="matrix(1.05209,0,0,1.05209,-79.0782,-9.56728)">
        <path d="M349.752,213.716C356.419,217.565 356.419,227.187 349.752,231.036L106.188,371.658C99.521,375.507 91.188,370.696 91.188,362.998L91.188,81.754C91.188,74.056 99.521,69.245 106.188,73.094L349.752,213.716Z" style="fill:url(#_Linear2);fill-rule:nonzero;"/>
    </g>
    <g transform="matrix(1.05209,0,0,1.05209,-79.0782,-9.56728)">
        <path d="M135.248,231.036C128.581,227.187 128.581,217.565 135.248,213.716L378.812,73.094C385.479,69.245 393.812,74.056 393.812,81.754L393.812,362.998C393.812,370.696 385.479,375.507 378.812,371.658L135.248,231.036Z" style="fill:url(#_Radial3);fill-rule:nonzero;"/>
    </g>
    <g transform="matrix(1.05209,0,0,1.05209,-79.0782,-9.56728)">
        <path d="M349.752,213.716C356.419,217.565 356.419,227.187 349.752,231.036L242.499,292.958L135.248,231.036C128.581,227.187 128.581,217.565 135.248,213.716L242.5,151.794L349.752,213.716Z" style="fill:rgb(189,56,180);fill-rule:nonzero;"/>
    </g>
    <defs>
        <linearGradient id="_Linear1" x1="0" y1="0" x2="1" y2="0" gradientUnits="userSpaceOnUse" gradientTransform="matrix(230.5,0,0,230.5,1282,221)"><stop offset="0" style="stop-color:rgb(26,153,195);stop-opacity:1"/><stop offset="1" style="stop-color:rgb(189,56,180);stop-opacity:1"/></linearGradient>
        <linearGradient id="_Linear2" x1="0" y1="0" x2="1" y2="0" gradientUnits="userSpaceOnUse" gradientTransform="matrix(198.409,0,0,198.409,110.227,222.376)"><stop offset="0" style="stop-color:rgb(240,75,35);stop-opacity:1"/><stop offset="1" style="stop-color:rgb(189,56,180);stop-opacity:1"/></linearGradient>
        <radialGradient id="_Radial3" cx="0" cy="0" r="1" gradientUnits="userSpaceOnUse" gradientTransform="matrix(136.5,0,0,136.5,258,222)"><stop offset="0" style="stop-color:rgb(189,56,180);stop-opacity:1"/><stop offset="1" style="stop-color:rgb(26,153,195);stop-opacity:1"/></radialGradient>
    </defs>
</svg>
